inDegrees=yes
name=ik_Xsens_quaternion
DataType=double
version=3
OpenSimVersion=4.4-2022-07-23-0e9fedc
endheader
time	r_shoulder_elev	r_elbow_flex
25.76666666666667	-4862.046522060282	5760.905173723382
25.78333333333333	-4853.803256473423	5748.016137711375
25.8	-4844.51076516877	5733.987961005003
25.81666666666667	-4835.325609214087	5718.73931924042
25.83333333333333	-4827.820268809228	5705.045943989579
25.85	-4822.533450868198	5694.418370118038
25.86666666666667	-4817.822490048716	5687.828839765113
25.88333333333333	-4813.131259794596	5682.779615170475
25.9	-4885.880921552556	5742.189277664064
25.91666666666667	-4849.464110834039	5710.966937477582
25.93333333333333	-4810.258497914871	5678.738419934243
25.95	-4767.1742251324	5641.596252460704
25.96666666666667	-4701.650008144593	5565.215404582134
25.98333333333333	-4637.841101395418	5481.641619720118
26	-4594.349146185245	5446.030727602838
26.01666666666667	-4552.037004292945	5446.769523422478
26.03333333333333	-4501.937660532059	5483.068176375146
26.05	-4445.928902975143	5510.490405197624
26.06666666666667	-4392.562053974472	5506.484076686687
26.08333333333333	-4338.925454424539	5485.558338507008
26.1	-4284.598793684942	5456.484145947036
26.11666666666667	-4219.397917719237	5398.813410567363
26.13333333333333	-4151.747794689447	5324.848741006739
26.15	-4119.976986846266	5307.234525918334
26.16666666666667	-4100.80485258275	5305.501903177112
26.18333333333333	-4084.627800844622	5301.223146215968
26.2	-4067.78017738704	5290.21900091852
26.21666666666667	-4050.96763763956	5276.013798402681
26.23333333333333	-4031.603345935732	5259.838413780251
26.25	-4011.072170676131	5245.747865646101
26.26666666666667	-3989.538168182721	5232.561843047344
26.28333333333333	-3965.826505458955	5218.947228923799
26.3	-3940.340149651965	5203.173440788119
26.31666666666667	-3908.470082018446	5180.039946357726
26.33333333333333	-3871.836821250273	5150.471876584234
26.35	-3829.219996165894	5110.520395062425
26.36666666666667	-3780.406641478909	5059.815962176218
26.38333333333333	-3729.992897574016	5005.46496712355
26.4	-3682.22801117045	4958.737945021138
26.41666666666667	-3647.900811429125	4931.853348960049
26.43333333333333	-3622.481792183669	4918.912167102803
26.45	-3596.714839601246	4906.487486778832
26.46666666666667	-3577.772416123911	4897.677605842943
26.48333333333333	-3569.01746834504	4896.275419161878
26.5	-3569.860866928309	4903.664436486536
26.51666666666667	-3575.819327799313	4916.306149065839
26.53333333333333	-3584.29311417882	4931.620885453605
26.55	-3596.930896086993	4951.46607546302
26.56666666666667	-3610.39257219716	4973.441807412154
26.58333333333333	-3623.788981331626	4995.40107588559
26.6	-3636.370912151319	5017.085966560612
26.61666666666667	-3648.549062625498	5037.464930918443
26.63333333333333	-3659.438983799952	5054.19580182536
26.65	-3670.238983370138	5069.935740923263
26.66666666666667	-3677.061614698454	5083.069199614941
26.68333333333333	-3675.48279528996	5086.701310568748
26.7	-3659.895064918888	5073.090579634772
26.71666666666667	-3625.273680745033	5037.942815693515
26.73333333333333	-3566.524035186528	4976.486745054497
26.75	-3478.671976365649	4887.112822716865
26.76666666666667	-3376.477641784396	4791.235388212459
26.78333333333333	-3259.957109318493	4684.539929109443
26.8	-3112.650567105211	4542.049135394012
26.81666666666667	-3278.376813128102	4708.191584386399
26.83333333333333	-3411.780706289341	4842.61319473103
26.85	-3225.785716576388	4628.058842530112
26.86666666666667	-3155.88180070083	4518.049107962243
26.88333333333333	-3195.142683998802	4512.286422684268
26.9	-3053.0372560973	4374.844578690729
26.91666666666667	-3112.104050168251	4434.774848299709
26.93333333333333	-3302.541569200802	4619.245054698751
26.95	-3467.65488763746	4661.365003357357
26.96666666666667	-3626.882496824649	4791.218532801596
26.98333333333333	-3465.728584136424	4664.03974281602
27	-3463.646047330061	4732.591223757874
27.01666666666667	-3580.682774150815	4945.752028694611
27.03333333333333	-3490.111269493339	4935.661326114757
27.05	-3422.519838038837	4911.090263001676
27.06666666666667	-3416.953000939769	4902.857457255638
27.08333333333333	-3546.636043259864	4926.303368006926
27.1	-3503.888614376554	4855.60023922329
27.11666666666667	-3422.935086442125	4800.619420408949
27.13333333333333	-3338.764736536797	4819.244411065398
27.15	-3216.015172961726	4846.638524100437
27.16666666666667	-3279.918428416379	4968.702714926268
27.18333333333333	-3126.466492722698	4928.871170051063
27.2	-3027.09842125779	4658.185537274479
27.21666666666667	-2963.084945072361	4620.816101014292
27.23333333333333	-2933.388653994064	4570.125818053547
27.25	-2851.907654390156	4337.788201415069
27.26666666666667	-2836.912586721734	4297.107468592217
27.28333333333333	-2816.483718177467	4317.002291497207
27.3	-2826.143055204441	4408.765934583806
27.31666666666667	-2661.04785139051	4312.066103322506
27.33333333333333	-2659.758435002649	4336.365741572035
27.35	-2640.626364515807	4294.45394416202
27.36666666666667	-2667.619792711425	4148.935019527346
27.38333333333333	-2505.111461665134	3932.795313522701
27.4	-2517.599757687996	3939.459886315654
27.41666666666667	-2505.095373607569	3889.293770961051
27.43333333333333	-2454.017170036258	4003.449907470615
27.45	-2386.107078685411	3935.96428086644
27.46666666666667	-2427.0432041169	4009.367093650595
27.48333333333333	-2401.793292465115	4048.263740010556
27.5	-2363.184552964	4088.422166756927
27.51666666666667	-2302.321345411875	4073.410718137552
27.53333333333333	-2160.165202272858	3939.904851919898
27.55	-1986.901560436145	3726.108666300775
27.56666666666667	-1927.158492279698	3505.649584394629
27.58333333333333	-1913.045098980801	3467.284945123426
27.6	-1887.800513071359	3441.572934134061
27.61666666666667	-1818.049616312908	3370.663183758264
27.63333333333333	-1948.264238529719	3288.524727294939
27.65	-1933.784723851625	3181.257281007183
27.66666666666667	-1911.292952267965	3175.728683009652
27.68333333333333	-1883.463006015045	3180.089876945697
27.7	-1840.900525171037	3178.889002242969
27.71666666666667	-1750.541284728301	3127.473891427914
27.73333333333333	-1611.788451503709	3040.470654478437
27.75	-1505.3692009929	2987.186762742175
27.76666666666667	-1451.619445611572	2973.072544952286
27.78333333333333	-1419.44572394962	2972.83386949646
27.8	-1397.831549753136	2979.747848850132
27.81666666666667	-1383.905366033707	2999.896615957496
27.83333333333333	-1381.833088345432	3068.086864804361
27.85	-1408.218239834306	3234.268825389599
27.86666666666667	-1418.65408567786	3309.21562419087
27.88333333333333	-1414.969588179293	3335.352176319863
27.9	-1380.697100115889	3323.100900545186
27.91666666666667	-1368.361898457583	3325.210983940488
27.93333333333333	-1360.251993533378	3326.415155359449
27.95	-1353.742057138938	3325.127261224816
27.96666666666667	-1351.267928337037	3323.946203426925
27.98333333333333	-1350.426732272039	3322.615976378938
28	-1349.050934212399	3320.567221469887
28.01666666666667	-1346.682690734031	3316.609145297645
28.03333333333333	-1345.569887604864	3313.767810582603
28.05	-1343.833754380908	3312.186884972715
